/* XPM */
static char * rodin32_xpm[] = {
"32 32 94 2",
"  	c #FFFFFF",
". 	c #000000",
"+ 	c #030303",
"@ 	c #101010",
"# 	c #292929",
"$ 	c #505050",
"% 	c #8F8F8F",
"& 	c #E8E8E8",
"* 	c #4A4A4A",
"= 	c #444444",
"- 	c #262626",
"; 	c #0D0D0D",
"> 	c #404040",
", 	c #484848",
"' 	c #333333",
") 	c #060606",
"! 	c #080808",
"~ 	c #9A9A9A",
"{ 	c #595959",
"] 	c #D1D1D1",
"^ 	c #EFEFEF",
"/ 	c #727272",
"( 	c #A0A0A0",
"_ 	c #757575",
": 	c #FCFCFC",
"< 	c #5B5B5B",
"[ 	c #0E0E0E",
"} 	c #F0F0F0",
"| 	c #767676",
"1 	c #C5C5C5",
"2 	c #A4A4A4",
"3 	c #777777",
"4 	c #F3F3F3",
"5 	c #7C7C7C",
"6 	c #828282",
"7 	c #EAEAEA",
"8 	c #B2B2B2",
"9 	c #B1B1B1",
"0 	c #1E1E1E",
"a 	c #F9F9F9",
"b 	c #F4F4F4",
"c 	c #323232",
"d 	c #050505",
"e 	c #BEBEBE",
"f 	c #959595",
"g 	c #252525",
"h 	c #C3C3C3",
"i 	c #070707",
"j 	c #BFBFBF",
"k 	c #4B4B4B",
"l 	c #434343",
"m 	c #1B1B1B",
"n 	c #1C1C1C",
"o 	c #B7B7B7",
"p 	c #FEFEFE",
"q 	c #AAAAAA",
"r 	c #020202",
"s 	c #B6B6B6",
"t 	c #6E6E6E",
"u 	c #1F1F1F",
"v 	c #FBFBFB",
"w 	c #BBBBBB",
"x 	c #BDBDBD",
"y 	c #7E7E7E",
"z 	c #D5D5D5",
"A 	c #545454",
"B 	c #2F2F2F",
"C 	c #454545",
"D 	c #616161",
"E 	c #0C0C0C",
"F 	c #FDFDFD",
"G 	c #E5E5E5",
"H 	c #353535",
"I 	c #6F6F6F",
"J 	c #FAFAFA",
"K 	c #3A3A3A",
"L 	c #808080",
"M 	c #666666",
"N 	c #B5B5B5",
"O 	c #969696",
"P 	c #1A1A1A",
"Q 	c #6B6B6B",
"R 	c #ADADAD",
"S 	c #B9B9B9",
"T 	c #C8C8C8",
"U 	c #9B9B9B",
"V 	c #CACACA",
"W 	c #515151",
"X 	c #868686",
"Y 	c #393939",
"Z 	c #0B0B0B",
"` 	c #141414",
" .	c #4D4D4D",
"..	c #BCBCBC",
"                                                                ",
"                                                                ",
"                                                                ",
"                                                                ",
"      . . . . . . . . . . . . . . + @ # $ % &                   ",
"      * = - . . . . . . ; > * , ' ) . . . . ! ~                 ",
"            { . . . . . ]         ^ / . . . . . (               ",
"            _ . . . . . :             < . . . . [ }             ",
"            | . . . . .               1 . . . . . 2             ",
"            3 . . . . .               4 . . . . . 5             ",
"            3 . . . . .               : . . . . . 6             ",
"            3 . . . . .               7 . . . . . 8             ",
"            3 . . . . .               9 . . . . 0 a             ",
"            3 . . . . .             b c . . . d e               ",
"            3 . . . . .     : } ] f g . . . - h                 ",
"            3 . . . . . . . . . . . . i / j :                   ",
"            3 . . . . . k * l m . . . . n o                     ",
"            3 . . . . .       p q ) . . . r s                   ",
"            3 . . . . .           t . . . . u v                 ",
"            3 . . . . .           2 . . . . . w                 ",
"            3 . . . . .           x . . . . . y                 ",
"            3 . . . . .           z . . . . . A                 ",
"            | . . . . .           ^ . . . . . B     p C D       ",
"            | . . . . .           p ; . . . . E F   G . H       ",
"            I . . . . . J           K . . . . . w   L . M       ",
"      w N O P . . . . . Q R S T     U . . . . . + 0 . . V       ",
"      . . . . . . . . . . . . '     : W . . . . . . . X         ",
"      . . . . . . . . . . . . '       : ~ Y Z . `  ...          ",
"                                                                ",
"                                                                ",
"                                                                ",
"                                                                "};
