/* XPM */
static char * rodin32_xpm[] = {
"32 32 2 1",
" 	c None",
".	c #E76E1B",
"             ..........         ",
"        ...................     ",
"      .......................   ",
"     ..........         .....   ",
"     ...   ....          ....   ",
"     ..    ...           ....   ",
"           ...           ....   ",
"           ...           ...    ",
"           ..           ...     ",
"          ...           ...     ",
"          ...          ...      ",
"          ...        ...        ",
"          ..        ...         ",
"         ...     ....           ",
"         ...   .....            ",
"         ...  .. ...            ",
"         ..       ...           ",
"        ...       ...           ",
"        ...       ...           ",
"       ...        ..            ",
"       ...        ..            ",
"      ....       ...            ",
"      ...        ...            ",
"     ....        ..             ",
"     ...         ..             ",
"    ....        ...       ..    ",
"    ....        ...      .      ",
"   ....         ...     .       ",
"  ....           .......        ",
"  ....            .....         ",
"  ...              ..           ",
"                                "};
