<?xml version="1.0" encoding="UTF-8" standalone="no"?>
<!-- Created with Inkscape (http://www.inkscape.org/) -->

<svg
   xmlns:dc="http://purl.org/dc/elements/1.1/"
   xmlns:cc="http://creativecommons.org/ns#"
   xmlns:rdf="http://www.w3.org/1999/02/22-rdf-syntax-ns#"
   xmlns:svg="http://www.w3.org/2000/svg"
   xmlns="http://www.w3.org/2000/svg"
   xmlns:sodipodi="http://sodipodi.sourceforge.net/DTD/sodipodi-0.dtd"
   xmlns:inkscape="http://www.inkscape.org/namespaces/inkscape"
   id="svg2"
   version="1.1"
   inkscape:version="0.48.3.1 r9886"
   width="668"
   height="668"
   sodipodi:docname="R_668.png">
  <metadata
     id="metadata8">
    <rdf:RDF>
      <cc:Work
         rdf:about="">
        <dc:format>image/svg+xml</dc:format>
        <dc:type
           rdf:resource="http://purl.org/dc/dcmitype/StillImage" />
        <dc:title></dc:title>
      </cc:Work>
    </rdf:RDF>
  </metadata>
  <defs
     id="defs6" />
  <sodipodi:namedview
     pagecolor="#ffffff"
     bordercolor="#666666"
     borderopacity="1"
     objecttolerance="10"
     gridtolerance="10"
     guidetolerance="10"
     inkscape:pageopacity="0"
     inkscape:pageshadow="2"
     inkscape:window-width="1912"
     inkscape:window-height="1024"
     id="namedview4"
     showgrid="false"
     inkscape:zoom="0.70658683"
     inkscape:cx="754.68294"
     inkscape:cy="291.11682"
     inkscape:window-x="8"
     inkscape:window-y="24"
     inkscape:window-maximized="1"
     inkscape:current-layer="svg2" />
  <path
     inkscape:connector-curvature="0"
     id="path2991"
     d="m 63.035163,653.42391 c -7.41796,-3.23106 -12.09186,-13.40718 -13.30507,-28.96808 -0.43418,-5.56893 -0.44831,-13.69256 -0.0314,-18.05251 0.70744,-7.39816 1.09508,-8.39921 5.8085,-15 22.84835,-31.99742 48.607427,-77.29829 80.501427,-141.57281 16.46371,-33.17857 27.53215,-57.95666 36.6296,-82 14.14747,-37.38983 36.69158,-129.03696 59.00476,-239.86827 8.20569,-40.758349 8.97804,-45.52402 7.60103,-46.901036 -2.10343,-2.10343 -22.97135,-2.856985 -37.3693,-1.349433 -21.64229,2.266078 -35.187,7.735308 -44.78997,18.085785 -11.05148,11.911744 -16.61036,16.813124 -22.82639,20.126514 -5.15517,2.74791 -7.51396,3.36116 -14.29852,3.71745 -10.05537,0.52804 -14.18492,-0.75124 -18.75532,-5.81012 -4.348627,-4.81341 -5.877017,-10.17245 -5.846847,-20.500891 0.0505,-17.294229 8.665017,-30.615433 27.945887,-43.2147 43.43944,-28.385912 127.2328,-40.397842 272.06081,-39.000409 28.99621,0.279782 58.57038,1.018474 65.72038,1.641539 70.09873,6.108536 111.7963,18.198548 133.46663,38.698018 11.59617,10.969623 16.04461,21.336681 16.0205,37.335651 -0.0112,7.434634 -0.5882,10.252792 -4.45817,21.774672 -7.63495,22.73114 -17.66801,41.23921 -34.02448,62.76523 -36.36199,47.85439 -93.5316,91.29848 -172.18008,130.84237 -3.94657,1.98431 -7.47281,4.08875 -7.83609,4.67654 -1.10838,1.7934 1.17374,3.51638 6.44795,4.86812 6.222,1.59465 15.66539,7.59317 19.74457,12.54192 7.92307,9.61206 11.28294,21.39562 11.30439,39.64616 0.0235,19.99055 -5.33724,45.36523 -25.07935,118.71137 -12.40091,46.072 -14.18375,56.54658 -12.14932,71.37982 1.59461,11.62652 3.62453,17.67895 8.25491,24.613 4.59109,6.87522 11.62485,12.14403 20.48854,15.34744 4.74858,1.71618 8.39855,2.18981 17.5,2.27086 10.85729,0.0967 11.94501,-0.0823 19.46248,-3.20243 16.39598,-6.80515 39.08934,-21.764 68.53752,-45.17809 43.11238,-34.27843 59.37143,-43.60173 56.56958,-32.43827 -1.45346,5.79103 -29.1947,31.80304 -64.56958,60.54466 -42.15958,34.25411 -63.6473,49.962 -77.02468,56.30634 -9.86244,4.67736 -15.37164,5.61469 -26.33438,4.4805 -19.76267,-2.04463 -33.75442,-8.01617 -45.07037,-19.2356 -13.68486,-13.56813 -22.06229,-28.99048 -26.16853,-48.17471 -5.69913,-26.62612 -0.93766,-57.1104 18.58712,-119 14.54894,-46.11722 17.47001,-59.14173 17.49345,-78 0.015,-12.10624 -0.3073,-14.99119 -2.38295,-21.32758 -3.93581,-12.01489 -13.89554,-25.28212 -22.48933,-29.95775 -6.7266,-3.65974 -22.57501,-1.42036 -44.36995,6.2695 -12.22039,4.31169 -25.22442,7.86513 -25.98811,7.10143 -0.97808,-0.97808 2.68171,-12.61681 5.4559,-17.3506 1.43885,-2.45521 4.79641,-6.64435 7.46125,-9.30919 10.42404,-10.42403 23.82436,-15.97642 63.83058,-26.44804 27.23259,-7.12811 33.70729,-9.32589 48.5,-16.46285 22.72693,-10.96494 44.40668,-27.01077 65.70701,-48.6317 35.23158,-35.76189 53.40591,-68.02158 56.2718,-99.88322 0.87568,-9.73531 -0.88554,-20.73935 -4.50647,-28.156395 -3.61482,-7.404505 -8.96471,-11.283364 -20.70439,-15.011408 -19.70203,-6.25656 -44.05318,-8.338804 -97.21784,-8.313008 -60.04376,0.02913 -97.12897,2.661899 -103.54119,7.350631 -1.1989,0.876653 -7.49452,22.940739 -21.02643,73.69075 -21.82489,81.85196 -48.47815,177.7766 -60.97261,219.43943 -38.38706,128.00183 -81.7226,222.22465 -121.25038,263.63013 -17.186077,18.00248 -30.154327,24.66862 -39.809077,20.46327 z"
     style="fill:#e66d1a" />
</svg>
